<svg width="48" height="63" viewBox="0 0 48 63" fill="none" xmlns="http://www.w3.org/2000/svg">
<path d="M23.8376 0.0543934C30.6298 0.0543934 37.422 0.0543934 44.2142 0.0543934C46.4264 0.0543934 47.619 1.24692 47.619 3.44186C47.619 12.2389 47.6362 21.0359 47.6017 29.833C47.6017 30.507 47.256 31.1811 47.1005 31.8551C47.0486 32.0452 47.0832 32.2699 47.1177 32.4773C47.2733 33.0995 47.6017 33.7044 47.6017 34.3093C47.6362 42.5187 47.619 50.7454 47.619 58.9548C47.619 60.8905 46.3573 62.1695 44.4216 62.1695C30.6816 62.1695 16.9589 62.1695 3.21896 62.1695C1.28326 62.1695 0.00432022 60.9078 0.00432022 58.9721C0.00432022 50.7281 -0.0129617 42.5014 0.0216043 34.2574C0.0216043 33.6698 0.349981 33.0822 0.488244 32.4773C0.540093 32.2699 0.540094 32.0106 0.505528 31.8032C0.367265 31.1811 0.0388873 30.5762 0.0216043 29.9712C-0.0129617 21.0705 0.00432022 12.1525 0.00432022 3.25175C0.00432022 1.31605 1.26598 0.0543924 3.20167 0.0371094C10.0803 0.0371094 16.9589 0.0543934 23.8376 0.0543934ZM23.8721 2.11107C17.0626 2.11107 10.2531 2.11107 3.42635 2.11107C2.32024 2.11107 2.061 2.3876 2.061 3.47643C2.061 12.2043 2.061 20.9495 2.061 29.6774C2.061 30.8354 2.32024 31.0946 3.44364 31.0946C17.0108 31.0946 30.5606 31.0946 44.1278 31.0946C45.2685 31.0946 45.5277 30.8354 45.5277 29.6947C45.5277 20.9841 45.5277 12.2735 45.5277 3.56284C45.5277 2.37032 45.2857 2.11107 44.1105 2.11107C37.3701 2.11107 30.6298 2.11107 23.8721 2.11107ZM23.7857 60.0955C30.5779 60.0955 37.3701 60.0955 44.1624 60.0955C45.303 60.0955 45.5623 59.8363 45.5623 58.6783C45.5623 50.6417 45.5623 42.5878 45.5623 34.5512C45.5623 33.4451 45.2857 33.1859 44.1969 33.1859C30.6125 33.1859 17.0281 33.1859 3.44364 33.1859C2.35481 33.1859 2.07828 33.4624 2.07828 34.5685C2.07828 42.6051 2.07828 50.659 2.07828 58.6956C2.07828 59.8363 2.33752 60.0955 3.4782 60.0955C10.2359 60.0955 17.0108 60.0955 23.7857 60.0955Z" fill="white"/>
<path d="M14.4699 26.9639C11.4972 26.9639 8.52451 26.9639 5.55183 26.9639C4.463 26.9639 4.16919 26.6355 4.11734 25.5294C4.01364 23.4382 4.34202 21.4852 5.70738 19.826C7.26285 17.9249 9.30224 16.8361 11.7046 16.6805C13.744 16.5423 15.8006 16.5423 17.8228 16.767C21.4349 17.1645 24.2347 19.9297 24.7359 23.3691C24.8569 24.2332 24.8224 25.1319 24.7878 26.0134C24.7705 26.6355 24.3039 26.9639 23.5607 26.9639C20.5535 26.9639 17.5117 26.9639 14.4699 26.9639ZM22.8003 24.8727C22.7657 24.3715 22.783 23.9394 22.6966 23.5246C22.2645 21.105 20.2769 19.1347 17.6672 18.8409C15.7315 18.6335 13.7613 18.6681 11.8083 18.7545C10.2701 18.8236 8.90473 19.4977 7.79862 20.6038C6.62338 21.779 6.10489 23.1962 6.24315 24.8727C11.7564 24.8727 17.2351 24.8727 22.8003 24.8727Z" fill="white"/>
<path d="M14.4705 14.5375C12.1891 14.5202 10.3398 12.6536 10.3398 10.3723C10.3571 8.09091 12.2237 6.24163 14.5223 6.25891C16.7691 6.27619 18.6184 8.14276 18.6184 10.4068C18.6357 12.6882 16.7518 14.5547 14.4705 14.5375ZM16.5617 10.3895C16.5617 9.26615 15.6284 8.33287 14.505 8.33287C13.3817 8.33287 12.4484 9.24887 12.4311 10.3723C12.4138 11.5302 13.3644 12.4808 14.5223 12.4635C15.6457 12.4462 16.5617 11.5129 16.5617 10.3895Z" fill="white"/>
<path d="M35.2271 10.4069C37.543 10.4069 39.8416 10.4069 42.1575 10.4069C43.0044 10.4069 43.5056 10.8044 43.471 11.4784C43.4538 12.1179 42.9698 12.4808 42.1403 12.4808C37.5084 12.4808 32.8593 12.4808 28.2274 12.4808C27.3806 12.4808 26.8794 12.0833 26.9139 11.4093C26.9312 10.7698 27.3979 10.4069 28.2274 10.4069C30.5607 10.4069 32.8939 10.4069 35.2271 10.4069Z" fill="white"/>
<path d="M35.1925 15.5744C37.543 15.5744 39.8935 15.5744 42.244 15.5744C42.9526 15.5744 43.3846 15.9028 43.4711 16.4731C43.5575 17.1126 43.0735 17.6311 42.3131 17.6311C40.8613 17.6484 39.4268 17.6311 37.9751 17.6311C34.7431 17.6311 31.5112 17.6311 28.2793 17.6138C27.9509 17.6138 27.5189 17.562 27.3287 17.3546C27.1041 17.0953 26.9485 16.6287 27.0004 16.283C27.0868 15.7645 27.5534 15.5571 28.0719 15.5571C30.094 15.5571 32.1334 15.5571 34.1555 15.5571C34.5012 15.5744 34.8468 15.5744 35.1925 15.5744Z" fill="white"/>
<path d="M35.1237 22.8334C32.7905 22.8334 30.4745 22.8334 28.1413 22.8334C27.4327 22.8334 27.0007 22.505 26.9142 21.9347C26.8278 21.2952 27.3118 20.7767 28.0722 20.7767C29.5758 20.7594 31.0967 20.7767 32.6004 20.7767C35.7977 20.7767 38.9778 20.7767 42.1751 20.7767C42.9529 20.7767 43.3849 21.0878 43.4541 21.6754C43.5405 22.3322 43.0393 22.8334 42.2443 22.8334C39.8765 22.8334 37.5087 22.8334 35.1237 22.8334Z" fill="white"/>
<path d="M35.1925 25.927C37.543 25.927 39.8935 25.927 42.244 25.927C42.9526 25.927 43.3846 26.2553 43.4711 26.8257C43.5575 27.4651 43.0735 27.9836 42.3131 27.9836C40.8613 28.0009 39.4268 27.9836 37.9751 27.9836C34.7431 27.9836 31.5112 27.9836 28.2793 27.9663C27.9509 27.9663 27.5189 27.9145 27.3287 27.7071C27.1041 27.4479 26.9485 26.9812 27.0004 26.6356C27.0868 26.1171 27.5534 25.9097 28.0719 25.9097C30.094 25.9097 32.1334 25.9097 34.1555 25.9097C34.5012 25.927 34.8468 25.927 35.1925 25.927Z" fill="white"/>
<path d="M35.192 5.22192C36.4883 5.22192 37.7845 5.22192 39.0807 5.22192C39.893 5.22192 40.3596 5.61943 40.3596 6.2589C40.3596 6.89837 39.8757 7.2786 39.0634 7.2786C36.471 7.2786 33.8958 7.2786 31.3034 7.2786C30.4911 7.2786 30.0244 6.88109 30.0244 6.24162C30.0244 5.60215 30.5083 5.22192 31.3206 5.22192C32.6169 5.22192 33.9131 5.22192 35.192 5.22192Z" fill="white"/>
<path d="M23.8721 35.2426C29.3854 35.2426 34.916 35.2426 40.4292 35.2426C42.3995 35.2426 43.471 36.2968 43.471 38.2671C43.471 43.8495 43.471 49.4319 43.471 55.0316C43.471 56.95 42.3995 58.0215 40.4638 58.0215C29.3508 58.0215 18.2552 58.0215 7.14219 58.0215C5.20649 58.0215 4.13495 56.95 4.13495 55.0316C4.13495 49.4319 4.13495 43.8149 4.13495 38.2152C4.13495 36.3314 5.22378 35.2598 7.10762 35.2598C12.7073 35.2426 18.2897 35.2426 23.8721 35.2426ZM23.8721 37.3165C18.3243 37.3165 12.7937 37.3165 7.24589 37.3165C6.31261 37.3165 6.20891 37.4375 6.20891 38.3535C6.20891 43.8668 6.20891 49.3973 6.20891 54.9106C6.20891 55.8266 6.32989 55.9476 7.24589 55.9476C18.2897 55.9476 29.3163 55.9476 40.3601 55.9476C41.2934 55.9476 41.3971 55.8266 41.3971 54.9106C41.3971 49.3973 41.3971 43.8668 41.3971 38.3535C41.3971 37.4375 41.2761 37.3165 40.3601 37.3165C34.8641 37.3165 29.3681 37.3165 23.8721 37.3165Z" fill="white"/>
<path d="M16.5787 45.6123C16.7861 44.9037 16.9935 44.247 17.2009 43.5384C14.9887 43.5384 12.811 43.5384 10.6334 43.5384C10.2186 43.5384 9.82108 43.5557 9.40629 43.5384C8.71497 43.5211 8.26561 43.089 8.28289 42.4668C8.30017 41.8792 8.73225 41.4644 9.40629 41.4644C11.5839 41.4471 13.7616 41.4644 15.9393 41.4644C16.1985 41.4644 16.4577 41.4471 16.717 41.4644C17.8922 41.5508 18.8946 41.3262 19.9316 40.583C22.5414 38.751 25.998 39.0621 28.4694 41.0842C28.7287 41.2916 29.1089 41.4471 29.4373 41.4471C32.3235 41.4817 35.2098 41.4644 38.1133 41.4644C38.8219 41.4644 39.254 41.7928 39.3404 42.3631C39.4268 43.0199 38.9256 43.5211 38.1306 43.5211C35.7801 43.5211 33.4296 43.5211 31.0792 43.5211C30.889 43.5211 30.6989 43.5211 30.4397 43.5211C30.6471 44.2124 30.8372 44.8519 31.0446 45.5951C31.2347 45.5951 31.4594 45.5951 31.6841 45.5951C33.7926 45.5951 35.9184 45.5951 38.0269 45.5951C38.8738 45.5951 39.375 45.9926 39.3577 46.6666C39.3404 47.3061 38.8738 47.669 38.0442 47.669C35.711 47.669 33.3951 47.669 31.0619 47.669C30.8545 48.3603 30.6644 49.0171 30.4397 49.743C30.6989 49.743 30.9236 49.743 31.1483 49.743C33.4469 49.743 35.7628 49.743 38.0615 49.743C38.8738 49.743 39.3577 50.1232 39.3577 50.78C39.3577 51.4194 38.8911 51.8169 38.0615 51.8169C35.1925 51.8169 32.3235 51.7997 29.4546 51.8342C29.1262 51.8342 28.7459 51.9898 28.4867 52.1972C25.7387 54.4612 21.8673 54.444 19.1366 52.1626C18.8946 51.9725 18.5317 51.8342 18.2206 51.8342C15.438 51.8169 12.6555 51.8169 9.87293 51.8169C9.71738 51.8169 9.57911 51.8169 9.42357 51.8169C8.74953 51.7824 8.31746 51.4021 8.30017 50.8145C8.28289 50.2096 8.73225 49.7603 9.42357 49.7603C11.7741 49.743 14.1245 49.7603 16.475 49.7603C16.6997 49.7603 16.9417 49.7603 17.2182 49.7603C17.0108 49.0517 16.8207 48.4122 16.596 47.6863C15.9393 47.6863 15.2479 47.6863 14.5566 47.6863C12.8802 47.6863 11.1864 47.6863 9.50998 47.6863C8.74953 47.6863 8.28289 47.2888 8.28289 46.6493C8.28289 46.0271 8.74953 45.6123 9.50998 45.6123C11.6531 45.6123 13.7789 45.6123 15.922 45.6123C16.1466 45.6123 16.3713 45.6123 16.5787 45.6123ZM18.6354 46.6493C18.6354 49.5183 20.9686 51.8169 23.8376 51.8169C26.6893 51.8169 29.0052 49.4664 28.9879 46.5975C28.9706 43.7458 26.6374 41.4471 23.7684 41.4644C20.934 41.4817 18.6181 43.8149 18.6354 46.6493Z" fill="white"/>
<path d="M23.3364 47.306C23.8549 46.2863 24.3388 45.3012 24.84 44.3333C25.2029 43.6074 25.756 43.3655 26.3263 43.6593C26.8967 43.9531 27.0349 44.5234 26.672 45.2666C26.0671 46.4937 25.4449 47.7208 24.8227 48.9479C24.4079 49.7602 23.9413 49.9157 23.1462 49.5355C22.5586 49.259 21.9883 48.9652 21.4179 48.6714C20.813 48.3603 20.6056 47.7554 20.8822 47.2196C21.1414 46.7184 21.729 46.5455 22.3339 46.8221C22.6623 46.9603 22.9561 47.1332 23.3364 47.306Z" fill="white"/>
</svg>
