<svg width="52" height="50" viewBox="0 0 52 50" fill="none" xmlns="http://www.w3.org/2000/svg">
<path d="M51.9996 30.9289C51.8232 31.9602 51.701 33.0051 51.4839 34.0228C49.8012 41.5406 43.3962 47.5792 35.8106 48.8141C26.8409 50.2796 18.4275 45.7744 14.6415 37.4832C14.5058 37.1711 14.3294 37.1168 14.0309 37.1168C11.1812 37.1303 8.34508 37.1168 5.49539 37.1168C5.35969 37.1168 5.22399 37.1168 5.08829 37.1168C4.47764 37.0761 4.05697 36.6418 4.07054 36.0719C4.08411 35.5291 4.50478 35.1084 5.10186 35.0949C6.20103 35.0813 7.30019 35.0949 8.39935 35.0949C10.1634 35.0949 11.914 35.0949 13.6781 35.0949C13.4338 33.7921 13.2031 32.5301 12.9589 31.2003C12.796 31.2003 12.606 31.2003 12.4296 31.2003C10.5977 31.2003 8.77931 31.2003 6.94737 31.2003C6.73025 31.2003 6.49956 31.2003 6.29601 31.1596C5.79393 31.0646 5.46825 30.6303 5.49539 30.1283C5.52253 29.6533 5.86178 29.2598 6.3503 29.1919C6.5267 29.1648 6.71668 29.1648 6.90666 29.1648C8.7386 29.1648 10.557 29.1648 12.3889 29.1648C12.5653 29.1648 12.7553 29.1512 12.9046 29.1376C13.0674 27.8214 13.2167 26.5594 13.3795 25.2431C13.176 25.2431 12.9724 25.2431 12.7824 25.2431C9.01 25.2431 5.23756 25.2431 1.45155 25.2431C1.28871 25.2431 1.1123 25.2566 0.949458 25.2295C0.42023 25.1888 0.0267027 24.7817 0.0131327 24.266C-0.0140072 23.764 0.35238 23.3161 0.868037 23.2212C1.04445 23.194 1.23443 23.2076 1.42441 23.2076C5.46825 23.2076 9.51209 23.2076 13.5559 23.2212C13.9223 23.2212 14.0716 23.099 14.2073 22.7733C14.6958 21.6335 15.225 20.5072 15.7678 19.3266C15.605 19.3266 15.4286 19.3266 15.2522 19.3266C12.9724 19.3266 10.6791 19.3266 8.39935 19.3266C8.25008 19.3266 8.08725 19.3266 7.93798 19.313C7.31376 19.2452 6.90666 18.8109 6.92023 18.2546C6.94737 17.6846 7.36804 17.3047 8.0194 17.2911C10.1634 17.2775 12.3211 17.2911 14.4651 17.2911C14.6415 17.2911 14.8179 17.2911 15.0622 17.2911C14.8179 16.9383 14.5872 16.6804 14.438 16.3955C13.9766 15.5134 14.153 14.4821 14.8722 13.7222C15.4286 13.1387 16.0121 12.5552 16.5956 11.9988C17.6269 11.0218 18.9703 11.0489 19.9881 12.0531C20.463 12.5145 20.9108 13.003 21.3994 13.5051C21.7929 13.2608 22.1593 13.0301 22.5392 12.813C24.1405 11.8495 25.8503 11.1303 27.6687 10.6961C28.0622 10.6011 28.1843 10.4383 28.1572 10.0447C28.1165 9.48837 28.1436 8.932 28.1436 8.29422C27.8044 8.29422 27.4923 8.30779 27.1666 8.29422C25.9589 8.25351 24.9954 7.34432 24.9683 6.1366C24.9411 4.99672 24.9411 3.87042 24.9683 2.73054C25.009 1.52282 25.9589 0.586492 27.1666 0.572922C30.6812 0.559352 34.2094 0.559352 37.724 0.572922C38.9724 0.572922 39.9223 1.50925 39.963 2.79839C40.0037 3.88399 40.0037 4.96958 39.963 6.04161C39.9088 7.37146 38.9453 8.25351 37.6154 8.28065C37.344 8.28065 37.0862 8.28065 36.7605 8.28065C36.7605 8.98628 36.747 9.63764 36.7741 10.289C36.7741 10.3976 36.9234 10.5604 37.0184 10.5875C39.3524 11.1439 41.4829 12.1209 43.5455 13.5051C43.9933 13.0437 44.4275 12.5823 44.8754 12.1345C46.0288 10.9946 47.3451 10.9946 48.485 12.1209C49.0006 12.6366 49.5163 13.1387 50.0319 13.6679C51.009 14.6721 51.009 16.0155 50.0591 17.0333C49.6655 17.4539 49.2584 17.861 48.8378 18.2546C48.6342 18.4445 48.5935 18.5938 48.7564 18.8516C50.5612 21.5792 51.6196 24.5781 51.9046 27.8485C51.9182 27.9706 51.9589 28.0792 51.986 28.1878C51.9996 29.0969 51.9996 30.0197 51.9996 30.9289ZM32.4724 12.0938C22.7971 12.1209 14.9536 19.9779 14.9943 29.6126C15.0351 39.2744 22.8649 47.0771 32.486 47.0771C42.1342 47.0635 49.9912 39.1794 49.9641 29.5447C49.9505 19.9101 42.0935 12.0802 32.4724 12.0938ZM32.4724 6.24516C34.128 6.24516 35.7835 6.23159 37.439 6.24516C37.8054 6.24516 37.9683 6.1366 37.9683 5.75664C37.9547 4.86102 37.9547 3.96541 37.9683 3.06979C37.9683 2.68983 37.8054 2.58127 37.4526 2.58127C34.1415 2.59484 30.8169 2.59484 27.5058 2.58127C27.0852 2.58127 26.9902 2.74411 26.9902 3.12407C27.0037 3.99255 27.0173 4.84745 26.9902 5.71593C26.9766 6.15017 27.1394 6.25873 27.5601 6.25873C29.1885 6.24516 30.8305 6.24516 32.4724 6.24516ZM34.7115 8.32136C33.1781 8.32136 31.6854 8.32136 30.2063 8.32136C30.2063 8.95915 30.2063 9.55622 30.2063 10.1126C31.7261 10.1126 33.2052 10.1126 34.7115 10.1126C34.7115 9.55622 34.7115 8.95915 34.7115 8.32136ZM19.7574 14.6178C19.4046 14.2786 18.9839 13.885 18.5632 13.4915C18.3461 13.288 18.1561 13.288 17.9526 13.4915C17.4234 14.0207 16.8941 14.5364 16.392 15.0792C16.2971 15.1877 16.2835 15.4999 16.3649 15.5948C16.7584 16.0427 17.1927 16.4633 17.5455 16.8161C18.2918 16.0834 18.9975 15.3777 19.7574 14.6178ZM47.4265 16.8569C47.7929 16.4769 48.2 16.0834 48.5664 15.6356C48.6614 15.527 48.6614 15.2013 48.5664 15.0928C48.0643 14.5364 47.5351 14.0343 47.0058 13.5051C46.8023 13.3015 46.6123 13.288 46.3952 13.4915C45.9881 13.8986 45.5674 14.2786 45.1875 14.6449C45.9474 15.3913 46.653 16.0834 47.4265 16.8569Z" fill="white"/>
<path d="M2.02192 36.1262C2.00835 36.6826 1.51983 37.1439 0.977035 37.1304C0.434238 37.1032 0 36.6418 0 36.099C0.0135699 35.5427 0.488518 35.0813 1.05846 35.1084C1.60125 35.122 2.03549 35.5834 2.02192 36.1262Z" fill="white"/>
<path d="M34.4131 26.2336C35.4715 25.1752 36.53 24.1032 37.602 23.0447C38.077 22.5697 38.5519 22.0812 39.0404 21.6063C39.5832 21.0635 40.2074 21.0092 40.6417 21.457C41.0759 21.9048 41.0216 22.4748 40.4924 23.0176C39.054 24.4695 37.602 25.9215 36.15 27.3599C35.9193 27.5771 35.8786 27.7399 36.0143 28.052C36.7607 29.7618 36.1907 31.7159 34.6573 32.7608C33.1375 33.7921 31.0613 33.6021 29.7722 32.2858C28.483 30.9831 28.293 28.9476 29.3108 27.4414C30.3421 25.908 32.2962 25.338 34.0196 26.0572C34.1281 26.1115 34.2502 26.1658 34.4131 26.2336ZM30.6678 29.599C30.6678 30.5896 31.482 31.4038 32.4726 31.4038C33.4632 31.4038 34.2774 30.5896 34.2909 29.599C34.3045 28.5948 33.4632 27.767 32.4454 27.7806C31.4548 27.7806 30.6678 28.5948 30.6678 29.599Z" fill="white"/>
<path d="M36.5978 14.9707C36.6656 14.9843 36.8149 15.0114 36.9506 15.0521C41.9715 16.7077 45.3097 20.0594 46.9924 25.0532C47.2231 25.7452 46.9652 26.288 46.3546 26.478C45.7846 26.6544 45.2961 26.3559 45.0654 25.6638C43.7356 21.6471 41.1166 18.8381 37.1949 17.264C36.8285 17.1148 36.4485 17.0333 36.0957 16.8705C35.6343 16.6669 35.4308 16.2191 35.5258 15.7442C35.6208 15.2964 36.0279 14.9707 36.5978 14.9707Z" fill="white"/>
<path d="M23.4624 19.5573C23.4624 20.1137 22.9875 20.5886 22.4311 20.575C21.8883 20.5615 21.4405 20.1001 21.4405 19.5573C21.4405 19.0009 21.9155 18.526 22.4854 18.5531C23.0146 18.5531 23.4624 19.0145 23.4624 19.5573Z" fill="white"/>
<path d="M18.2923 28.5814C18.8486 28.5814 19.2964 29.0157 19.2964 29.572C19.2964 30.142 18.8215 30.6169 18.2651 30.6033C17.7223 30.5898 17.261 30.1148 17.2745 29.572C17.2881 29.0292 17.7495 28.5814 18.2923 28.5814Z" fill="white"/>
<path d="M32.4733 14.387C33.0161 14.387 33.4775 14.8483 33.4911 15.3776C33.5047 15.9339 33.0161 16.4089 32.4598 16.4089C31.9034 16.3953 31.4692 15.9475 31.4827 15.3911C31.4827 14.8348 31.9305 14.387 32.4733 14.387Z" fill="white"/>
<path d="M32.4864 44.7702C31.9165 44.7702 31.4958 44.336 31.4822 43.7796C31.4822 43.2233 31.9165 42.7754 32.4593 42.7619C33.0156 42.7483 33.5042 43.2368 33.5042 43.7932C33.4906 44.336 33.0428 44.7702 32.4864 44.7702Z" fill="white"/>
<path d="M22.4447 38.6094C23.0011 38.6094 23.4489 39.0436 23.4624 39.6C23.476 40.1699 23.0011 40.6313 22.4311 40.6177C21.8748 40.6042 21.4405 40.1564 21.4405 39.6C21.4405 39.0572 21.9019 38.6094 22.4447 38.6094Z" fill="white"/>
<path d="M46.6535 28.5811C47.2098 28.5676 47.6576 29.0018 47.6712 29.5582C47.6848 30.1417 47.2234 30.603 46.6535 30.603C46.1107 30.603 45.6629 30.1281 45.6493 29.5853C45.6493 29.0289 46.0971 28.5947 46.6535 28.5811Z" fill="white"/>
<path d="M43.5184 39.6136C43.5184 40.17 43.0842 40.6042 42.5278 40.6178C41.9443 40.6178 41.4965 40.17 41.5101 39.5865C41.5236 39.0301 41.9714 38.5959 42.5278 38.6094C43.0842 38.6094 43.5184 39.0572 43.5184 39.6136Z" fill="white"/>
</svg>
