<svg width="56" height="58" viewBox="0 0 56 58" fill="none" xmlns="http://www.w3.org/2000/svg">
<path d="M2.28464 57.2932C2.0813 57.2094 1.87795 57.1257 1.68657 57.03C0.514344 56.4439 0 55.475 0 54.1712C0 40.9777 0 27.7961 0 14.6026C0 13.7892 0.227268 13.5021 1.01673 13.2988C8.46874 11.3371 15.9207 9.36344 23.3847 7.40176C25.5976 6.81565 27.2483 8.11945 27.2602 10.4041C27.2602 11.3491 27.2602 12.306 27.2602 13.3347C27.8703 13.3347 28.4444 13.3705 29.0066 13.3107C29.1502 13.2988 29.3296 13.0476 29.3894 12.8682C30.442 9.92563 31.4826 6.97115 32.5233 4.02862C32.8821 3.01189 33.241 1.99516 33.6118 0.978437C33.9587 -0.0143667 34.3175 -0.181828 35.2984 0.165055C41.6499 2.40185 48.0134 4.65062 54.365 6.89938C55.3698 7.25822 55.5611 7.64099 55.2142 8.63379C52.2598 17.0068 49.2933 25.3799 46.3388 33.7529C44.724 38.3342 43.0973 42.9154 41.4825 47.4967C41.1356 48.4895 40.7408 48.6689 39.7361 48.322C37.4873 47.5326 35.2386 46.7312 32.9898 45.9417C32.8463 45.8939 32.7147 45.846 32.4755 45.7742C32.4755 46.0254 32.4755 46.2168 32.4755 46.4082C32.4755 48.8005 32.4276 51.1808 32.4874 53.5731C32.5353 55.3793 31.9611 56.6951 30.143 57.2812C20.8608 57.2932 11.5668 57.2932 2.28464 57.2932ZM1.90188 15.2724C1.90188 15.5475 1.90188 15.7389 1.90188 15.9423C1.90188 28.6095 1.90188 41.2648 1.90188 53.932C1.90188 55.1162 2.16503 55.3793 3.33726 55.3793C11.9017 55.3793 20.4542 55.3793 29.0186 55.3793C30.3104 55.3793 30.5497 55.1281 30.5497 53.8363C30.5497 41.492 30.5497 29.1478 30.5497 16.8035C30.5497 15.4997 30.3224 15.2724 29.0186 15.2724C20.2388 15.2724 11.4471 15.2724 2.66741 15.2724C2.45211 15.2724 2.2368 15.2724 1.90188 15.2724ZM53.2167 8.52614C47.1881 6.397 41.2193 4.29177 35.2505 2.18655C35.1788 2.2942 35.1429 2.34205 35.1189 2.38989C33.8151 6.07403 32.5113 9.75817 31.2315 13.4543C31.1717 13.6098 31.2793 13.9208 31.4228 14.0404C31.985 14.5547 32.3798 15.1528 32.4037 15.9183C32.4515 17.5212 32.4515 19.124 32.4635 20.7269C32.4635 21.1814 32.4635 21.6479 32.4635 22.1622C33.4324 21.8273 34.3414 21.5283 35.2266 21.1934C35.4299 21.1096 35.6452 20.8943 35.729 20.691C36.0639 19.8656 36.3031 18.9924 36.65 18.1791C36.7936 17.8441 37.0567 17.4973 37.3677 17.3178C38.0495 16.9111 38.7911 16.5882 39.5208 16.2652C40.1906 15.9542 40.6571 16.1217 40.992 16.7915C41.3389 17.4853 41.7097 18.1791 41.9848 18.9087C42.1164 19.2436 42.1284 19.6862 42.0327 20.0331C41.8054 20.8584 41.5064 21.6599 41.1954 22.4613C41.0399 22.856 41.0997 23.1431 41.315 23.49C42.1762 24.8177 43.0135 26.1693 43.8149 27.533C43.9944 27.832 44.1499 28.2626 44.0661 28.5616C43.8149 29.5066 43.4681 30.4396 43.0973 31.3606C42.858 31.9707 42.2001 32.1262 41.6499 31.7434C41.4107 31.5759 41.1954 31.3606 40.9681 31.1692C40.2504 30.5473 39.5447 29.9253 38.7911 29.2674C38.5758 29.8774 38.4442 30.4516 38.1691 30.9659C37.4634 32.2936 37.4873 33.5376 38.3366 34.8175C38.528 35.1165 38.504 35.6428 38.3964 36.0256C38.205 36.7792 37.894 37.5088 37.6309 38.2385C37.272 39.2074 36.5304 39.3748 35.8007 38.6332C35.1429 37.9753 34.473 37.3175 33.863 36.6117C33.4683 36.1572 33.0616 36.0017 32.5113 36.229C32.4994 36.2648 32.4635 36.2888 32.4635 36.3247C32.4515 38.717 32.4396 41.0973 32.4635 43.4776C32.4635 43.6092 32.6668 43.8125 32.8223 43.8604C33.9946 44.291 35.1668 44.6977 36.351 45.1164C37.4993 45.523 38.6476 45.9297 39.8318 46.3484C44.3173 33.729 48.755 21.1575 53.2167 8.52614ZM25.3464 13.3347C25.3464 12.4136 25.3464 11.5285 25.3464 10.6433C25.3464 9.33952 24.9038 8.99264 23.6598 9.3156C18.8992 10.5716 14.1265 11.8395 9.36585 13.0954C9.19839 13.1433 9.03093 13.2031 8.87543 13.2629C8.87543 13.2868 8.88739 13.3107 8.88739 13.3466C14.3538 13.3347 19.8202 13.3347 25.3464 13.3347ZM39.5925 18.3704C38.9347 18.6216 38.3725 18.8968 38.0974 19.7221C36.7696 23.6694 35.3343 27.5928 33.9706 31.5281C33.7553 32.1262 33.4563 32.5807 32.8463 32.8199C32.6788 32.8797 32.5353 33.1549 32.4994 33.3462C32.4396 33.6214 32.4874 33.9204 32.4874 34.2314C32.7027 34.2194 32.8343 34.2314 32.9539 34.1955C33.7553 33.9682 34.3534 34.2314 34.8797 34.8534C35.3103 35.3558 35.8247 35.7864 36.3151 36.2529C36.5902 35.8223 36.662 35.4036 36.3629 34.9252C36.1476 34.5783 36.0161 34.1835 35.8247 33.8247C35.5376 33.3223 35.5256 32.8319 35.729 32.2817C37.1285 28.3703 38.4801 24.4469 39.9155 20.5474C40.1906 19.7101 40.1308 19.0523 39.5925 18.3704ZM41.7576 29.2913C42.2001 28.6932 42.1284 28.2148 41.7217 27.7243C41.5183 27.4851 41.3868 27.1861 41.2193 26.9229C40.8963 26.4086 40.5853 25.9062 40.2026 25.3081C39.9633 25.966 39.76 26.5043 39.5925 27.0545C39.5567 27.1741 39.6045 27.4014 39.7002 27.4851C40.37 28.0832 41.0638 28.6813 41.7576 29.2913ZM32.5233 25.4038C32.9898 25.4038 33.4324 25.4158 33.875 25.3918C33.9706 25.3918 34.1261 25.2842 34.162 25.1885C34.3773 24.6263 34.5687 24.0522 34.796 23.3943C34.2816 23.5737 33.863 23.7053 33.4443 23.8488C32.4156 24.2077 32.4156 24.2077 32.4994 25.3201C32.4994 25.332 32.5113 25.356 32.5233 25.4038ZM33.3965 27.3296C33.0496 27.3535 32.7864 27.3775 32.5113 27.3894C32.5113 28.155 32.5113 28.8846 32.5113 29.6023C32.5353 29.6023 32.5711 29.6143 32.5951 29.6143C32.8582 28.8846 33.1214 28.143 33.3965 27.3296Z" fill="white"/>
<path d="M6.23196 28.5855C6.33961 23.2387 10.6458 19.0043 15.8849 19.112C21.2197 19.2196 25.4302 23.5377 25.3345 28.8008C25.2388 34.0758 20.8848 38.2982 15.6576 38.1906C10.3706 38.071 6.13627 33.7409 6.23196 28.5855ZM13.6242 30.7984C15.1074 30.7984 16.5069 30.7984 17.9781 30.7984C17.9781 29.3271 17.9781 27.9396 17.9781 26.4803C16.5069 26.4803 15.0954 26.4803 13.6242 26.4803C13.6242 27.9396 13.6242 29.3151 13.6242 30.7984ZM11.6625 26.7315C10.7175 26.9348 9.83237 27.1501 8.93526 27.3056C8.38503 27.4013 8.12188 27.6166 8.18168 28.2027C8.22953 28.6453 8.19365 29.0879 8.22953 29.5305C8.24149 29.6381 8.36111 29.8175 8.4568 29.8415C9.50941 30.0926 10.574 30.308 11.6625 30.5472C11.6625 29.2553 11.6625 28.0353 11.6625 26.7315ZM19.9159 30.5472C20.6934 30.3797 21.4231 30.2362 22.1407 30.0807C23.4087 29.8056 23.5402 29.6261 23.4087 28.3104C23.3847 28.107 23.3847 27.9037 23.3249 27.7003C23.301 27.5927 23.1934 27.4611 23.1096 27.4372C22.057 27.198 20.9924 26.9707 19.9159 26.7315C19.9159 28.0353 19.9159 29.2553 19.9159 30.5472ZM17.6791 24.5066C17.5236 23.765 17.392 23.0593 17.2365 22.3536C16.9255 20.966 16.9136 20.9899 15.4543 21.0139C14.8442 21.0258 14.4854 21.1574 14.4375 21.8512C14.4136 22.2938 14.2462 22.7244 14.1505 23.155C14.0548 23.5976 13.983 24.0401 13.8993 24.5066C15.1911 24.5066 16.3992 24.5066 17.6791 24.5066ZM17.6911 32.784C16.3753 32.784 15.1672 32.784 13.8993 32.784C14.0309 33.4419 14.1505 34.0639 14.282 34.6739C14.6529 36.3844 14.6768 36.3964 16.459 36.2409C16.5547 36.2289 16.6504 36.2409 16.7342 36.205C16.8298 36.1691 16.9614 36.0973 16.9734 36.0136C17.2246 34.949 17.4518 33.8844 17.6911 32.784ZM12.4759 35.4514C12.2964 34.5184 12.129 33.6093 11.9376 32.7122C11.9137 32.6285 11.818 32.4969 11.7462 32.4849C10.8371 32.3055 9.9161 32.1381 8.95918 31.9586C9.53333 33.3581 11.1362 34.949 12.4759 35.4514ZM19.0786 35.5232C20.6814 34.6978 21.8297 33.5495 22.6551 31.9467C21.6503 32.1381 20.7413 32.2936 19.8322 32.4849C19.7484 32.5089 19.6408 32.6524 19.6169 32.7601C19.4374 33.6452 19.27 34.5304 19.0786 35.5232ZM22.6671 25.3439C21.8178 23.7411 20.6814 22.5928 19.0786 21.7794C19.27 22.7483 19.4255 23.6215 19.6169 24.4947C19.6408 24.6143 19.7484 24.7937 19.8441 24.8057C20.7532 24.997 21.6623 25.1525 22.6671 25.3439ZM8.91133 25.332C9.92806 25.1406 10.8371 24.9731 11.7342 24.7937C11.818 24.7817 11.9256 24.6621 11.9376 24.5664C12.129 23.6574 12.2964 22.7603 12.4878 21.7555C10.8969 22.5928 9.7606 23.7291 8.91133 25.332Z" fill="white"/>
<path d="M23.4206 45.8938C23.4206 46.5158 23.4206 47.0899 23.4206 47.7119C18.3489 47.7119 13.2892 47.7119 8.18166 47.7119C8.18166 47.1139 8.18166 46.5278 8.18166 45.8938C13.2533 45.8938 18.313 45.8938 23.4206 45.8938Z" fill="white"/>
<path d="M21.5072 49.6855C21.5072 50.3315 21.5072 50.9056 21.5072 51.5276C17.7035 51.5276 13.9117 51.5276 10.084 51.5276C10.084 50.9176 10.084 50.3075 10.084 49.6855C13.9117 49.6855 17.6795 49.6855 21.5072 49.6855Z" fill="white"/>
<path d="M11.04 43.8843C11.04 43.2384 11.04 42.6523 11.04 42.0422C11.674 42.0422 12.2721 42.0422 12.8941 42.0422C12.8941 42.6642 12.8941 43.2504 12.8941 43.8843C12.284 43.8843 11.686 43.8843 11.04 43.8843Z" fill="white"/>
<path d="M14.8681 42.0424C15.4901 42.0424 16.0763 42.0424 16.6983 42.0424C16.6983 42.6524 16.6983 43.2385 16.6983 43.8725C16.1002 43.8725 15.5021 43.8725 14.8681 43.8725C14.8681 43.2864 14.8681 42.7002 14.8681 42.0424Z" fill="white"/>
<path d="M20.5257 43.8963C19.8917 43.8963 19.3056 43.8963 18.6836 43.8963C18.6836 43.2743 18.6836 42.6882 18.6836 42.0542C19.2936 42.0542 19.8917 42.0542 20.5257 42.0542C20.5257 42.6642 20.5257 43.2503 20.5257 43.8963Z" fill="white"/>
<path d="M44.7602 11.6243C45.3104 11.8276 45.8367 12.007 46.3869 12.2104C46.1716 12.8204 45.9683 13.3946 45.753 14.0046C45.1908 13.8013 44.6764 13.6218 44.1143 13.4305C44.3415 12.7965 44.5449 12.2223 44.7602 11.6243Z" fill="white"/>
<path d="M34.9279 8.14331C35.5021 8.34666 36.0044 8.52608 36.5547 8.72942C36.3394 9.33946 36.148 9.90165 35.9207 10.5236C35.3705 10.3323 34.8561 10.1528 34.2939 9.9495C34.5212 9.33946 34.7126 8.77727 34.9279 8.14331Z" fill="white"/>
<path d="M40.8485 12.2581C41.0877 11.6122 41.2791 11.05 41.4944 10.4639C42.0447 10.6553 42.547 10.8347 43.1092 11.038C42.8939 11.6361 42.7025 12.2102 42.4872 12.8322C41.925 12.6289 41.4107 12.4495 40.8485 12.2581Z" fill="white"/>
<path d="M48.0374 12.7844C48.5996 12.9758 49.1139 13.1672 49.6641 13.3586C49.4488 13.9686 49.2574 14.5188 49.0302 15.1528C48.4919 14.9614 47.9776 14.782 47.4034 14.5786C47.6187 13.9686 47.8221 13.4064 48.0374 12.7844Z" fill="white"/>
<path d="M39.8437 9.8897C39.6284 10.5117 39.4251 11.0619 39.2098 11.6839C38.6596 11.4925 38.1452 11.3131 37.583 11.1098C37.7983 10.4878 38.0017 9.92559 38.217 9.31555C38.7672 9.50694 39.2696 9.68636 39.8437 9.8897Z" fill="white"/>
</svg>
